<svg width="158" height="156" viewBox="0 0 158 156" fill="none" xmlns="http://www.w3.org/2000/svg">
<path d="M19.75 32.5V123.5C19.75 130.65 25.6092 136.5 32.9167 136.5H125.083C132.325 136.5 138.25 130.65 138.25 123.5V32.5C138.25 25.35 132.325 19.5 125.083 19.5H32.9167C25.6092 19.5 19.75 25.35 19.75 32.5ZM98.75 58.5C98.75 69.29 89.9283 78 79 78C68.0717 78 59.25 69.29 59.25 58.5C59.25 47.71 68.0717 39 79 39C89.9283 39 98.75 47.71 98.75 58.5ZM39.5 110.5C39.5 97.5 65.8333 90.35 79 90.35C92.1667 90.35 118.5 97.5 118.5 110.5V117H39.5V110.5Z" fill="#323232"/>
</svg>
